# xmcd
#
# Track frame offsets:
#	150
#	16489
#	33068
#	49138
#	62331
#	81242
#	101898
#	118228
#	138309
#	149730
#
# Disc length: 2161 seconds
#
# Revision: 1
# Processed by: cddbd v1.5.1PL2 Copyright (c) Steve Scherf et al.
# Submitted via: audiograbber 1.83.01
#
DISCID=8c086f0a
DTITLE=ละคร - หงส์ฟ้ากับสมหวัง
DYEAR=2000
DGENRE=ละคร
TTITLE0=สมหวังนะครับ
TTITLE1=ต้องมีสักวัน
TTITLE2=หน้าขาวใจดำ
TTITLE3=ไม้เบื่อไม้เมา
TTITLE4=ยังจำได้ไหม
TTITLE5=โฉมนาง
TTITLE6=เพียงแค่หลับตา
TTITLE7=หัวใจเพรียกหา
TTITLE8=มอเตอร์ไซค์ทำหล่น
TTITLE9=หวงก้าง
EXTD=
EXTT0=
EXTT1=
EXTT2=
EXTT3=
EXTT4=
EXTT5=
EXTT6=
EXTT7=
EXTT8=
EXTT9=
PLAYORDER=
